<svg width="701" height="508" viewBox="0 0 701 508" fill="none" xmlns="http://www.w3.org/2000/svg">
<path fill-rule="evenodd" clip-rule="evenodd" d="M663.454 371.654C612.76 473.885 393.384 561.882 175.383 467.401C49.9926 413.056 2.56094 282.103 0.0773055 221.531C-1.87582 173.898 33.6349 123.113 55.0725 101.293C100.641 54.912 343.835 -2.85719 399.384 0.109777C477.803 -2.09045 526.725 65.9682 588.449 69.2135C632.337 71.521 763.759 169.379 663.454 371.654Z" fill="#5B60FD"/>
<path fill-rule="evenodd" clip-rule="evenodd" d="M357.873 214.158C357.618 217.958 357.93 221.796 358.795 225.506C359.16 227.07 361.507 227.359 362.727 226.314C363.948 225.27 364.273 223.533 364.404 221.932C364.599 219.565 364.536 217.177 364.219 214.824C364.055 213.608 363.803 212.353 363.069 211.37C362.336 210.386 360.995 209.756 359.849 210.195C358.39 210.755 357.978 212.598 357.873 214.158Z" fill="white"/>
<path fill-rule="evenodd" clip-rule="evenodd" d="M173.255 120.888C186.653 114.253 202.653 113.065 216.884 117.647C220.46 110.777 225.727 104.795 232.09 100.378C233.317 99.5259 235.074 98.7565 236.178 99.7629C235.733 106.823 235.288 113.904 235.706 120.965C236.03 126.462 236.877 131.928 236.954 137.433C237.178 153.346 230.939 168.759 222.453 182.222C242.827 195.925 258.187 216.918 265.082 240.484C262.199 241.972 186.752 244.594 145.942 241.332C144.996 241.972 144.112 240.425 144.004 239.288C142.912 227.79 142.299 216.084 144.684 204.783C147.07 193.483 152.771 182.499 162.19 175.814C153.449 156.784 156.848 133.437 146.185 115.413C145.551 114.343 145.018 112.674 146.127 112.11C146.538 111.902 147.029 111.966 147.484 112.043C154.919 113.305 162.004 116.575 167.788 121.414C169.28 122.663 171.512 121.752 173.255 120.888Z" fill="white"/>
<path fill-rule="evenodd" clip-rule="evenodd" d="M462.368 239.319C462.317 239.319 470.115 227.628 474.896 222.19C479.262 217.223 481.822 210.702 481.999 204.091C466.902 203.495 451.88 201 437.399 196.685C435.183 196.025 432.898 195.275 431.218 193.686C427.295 189.976 428.266 183.506 430.288 178.5C432.744 172.424 436.311 166.799 440.761 161.988C442.283 160.343 443.934 158.754 444.93 156.747C445.927 154.74 446.136 152.159 444.792 150.366C442.526 147.346 442.049 143.378 441.813 139.61C441.577 135.841 441.469 131.923 439.757 128.557C438.046 125.192 434.158 122.576 430.547 123.679C429.672 122.342 431.402 120.799 432.925 120.315C438.677 118.487 445.121 120.087 450.163 123.404C455.205 126.721 459.031 131.585 462.317 136.647C463.6 138.624 465.77 140.946 467.861 139.86C482.145 132.443 499.576 131.362 514.667 136.957C516.764 137.735 519.988 138.068 520.416 135.872C522.546 124.938 531.672 115.702 542.58 113.442C538.293 116.517 538.034 122.771 538.892 127.976C539.75 133.182 541.262 138.727 539.121 143.549C537.394 147.441 541.745 151.099 545.268 153.49C550.589 157.101 555.347 161.54 559.319 166.598C563.248 171.602 566.524 178.033 564.729 184.138C562.379 192.129 552.975 195.292 544.883 197.265C536.983 199.191 529.084 201.117 521.184 203.042C521.039 210.749 523.79 218.476 528.773 224.356C532.77 229.073 538.578 233.935 537.307 239.985C539.969 244.206 514.989 243.984 462.368 239.319Z" fill="white"/>
<path fill-rule="evenodd" clip-rule="evenodd" d="M481.327 343.536C484.049 345.22 487.068 347.237 490.179 346.486C497.385 344.748 505.1 345.184 512.063 347.724C514.994 348.793 517.651 345.76 519.488 343.239C524.821 335.919 531.793 329.801 539.745 325.466C545.227 334.466 539.673 346.92 544.441 356.318C551.818 370.864 549.858 389.651 539.637 402.361C550.364 412.841 557.657 426.78 560.152 441.567C558.877 441.943 493.543 450.047 457.667 440.324C457.27 429.902 461.028 419.378 467.937 411.565C457.68 399.486 452.676 383.094 454.438 367.345C454.622 365.706 454.857 363.958 454.127 362.479C450.3 354.73 447.664 346.394 446.34 337.853C446.261 337.343 446.195 336.784 446.465 336.344C446.822 335.759 447.604 335.631 448.287 335.576C459.77 334.64 471.53 337.473 481.327 343.536Z" fill="white"/>
<path fill-rule="evenodd" clip-rule="evenodd" d="M170.599 442.984C171.904 435.169 173.21 427.354 174.515 419.539C174.854 417.51 174.807 414.794 172.851 414.158C166.752 412.176 161.598 407.462 159.082 401.563C158.29 399.704 155.844 399.043 153.899 399.59C151.955 400.137 150.403 401.568 148.931 402.952C149.771 399.671 152.785 397.065 156.153 396.709C157.296 394.782 155.659 392.121 153.49 391.561C151.321 391.001 149.036 391.979 147.225 393.297C147.083 391.209 149.624 390.187 151.55 389.367C153.475 388.547 155.355 385.956 153.713 384.658C152.998 384.092 151.981 384.193 151.078 384.322C148.467 384.696 145.857 385.069 143.246 385.443C143.543 383.341 146.274 382.801 148.391 382.639C150.507 382.476 153.24 381.445 153.004 379.335C152.097 371.206 154.066 362.962 157.351 355.471C160.073 349.264 152.063 343.049 152.589 336.292C152.629 335.769 152.754 335.196 153.176 334.884C153.68 334.512 154.385 334.66 154.984 334.845C159.108 336.118 162.932 338.352 166.065 341.32C167.585 342.761 170.035 341.779 171.948 340.925C179.004 337.776 187.274 337.45 194.555 340.033C201.131 342.366 206.963 331.113 213.48 333.607C211.816 339.08 210.153 344.554 208.49 350.028C208.031 351.538 207.597 353.272 208.431 354.612C211.241 359.126 212.945 364.324 213.354 369.626C213.641 373.361 214.364 378.406 218.099 378.699C216.472 379.415 214.678 380.306 214.115 381.991C213.552 383.677 215.477 385.9 216.934 384.884C218.192 384.006 220.225 384.739 220.634 386.216C218.479 386.005 216.142 386.24 214.457 387.601C212.772 388.961 212.111 391.712 213.539 393.34C216.672 392.049 220.372 392.219 223.374 393.79C221.585 395.106 219.128 394.717 216.911 394.585C214.694 394.452 211.995 394.964 211.21 397.041C208.592 403.975 202.159 409.325 194.864 410.635C191.271 411.281 190.694 416.141 190.991 419.779C191.612 427.413 192.233 435.046 192.855 442.68C191.575 443.895 176.715 445.579 170.599 442.984Z" fill="white"/>
<path fill-rule="evenodd" clip-rule="evenodd" d="M71.1583 410.199C70.9036 414 71.2154 417.838 72.0802 421.547C72.4448 423.112 74.7925 423.401 76.0126 422.356C77.2328 421.311 77.5579 419.574 77.6894 417.973C77.8837 415.607 77.8214 413.219 77.5039 410.865C77.3398 409.649 77.0878 408.395 76.3543 407.411C75.6209 406.427 74.28 405.797 73.1342 406.237C71.6749 406.796 71.2628 408.64 71.1583 410.199Z" fill="white"/>
<path fill-rule="evenodd" clip-rule="evenodd" d="M366.272 431.151C366.727 431.406 366.662 432.139 366.278 432.493C365.894 432.846 365.338 432.922 364.82 432.982C363.011 433.191 361.021 433.357 359.522 432.323C360.284 431.78 361.046 431.236 361.808 430.693C361.329 430.006 360.389 429.867 359.557 429.765C358.726 429.664 357.779 429.464 357.374 428.731C356.969 427.998 357.852 426.832 358.517 427.341C360.571 428.914 363.591 429.093 365.817 427.774C367.282 426.905 368.668 425.399 370.339 425.725C369.171 428 366.858 429.648 364.326 430.008C364.384 430.892 365.471 431.53 366.272 431.151Z" fill="#00160A"/>
<path fill-rule="evenodd" clip-rule="evenodd" d="M75.8071 429.966C73.9964 430.176 72.004 430.343 70.5045 429.307C71.2724 428.762 72.0403 428.217 72.8081 427.671C72.2792 427.002 71.3299 426.888 70.485 426.772C69.64 426.656 68.6787 426.396 68.3287 425.618C67.9788 424.84 69.0255 423.752 69.6226 424.361C71.0899 425.858 73.5277 425.953 75.5104 425.273C77.4931 424.593 79.1852 423.283 80.993 422.223C81.0392 424.898 77.9067 426.307 75.3284 427.021C75.3883 427.893 76.4678 428.517 77.2536 428.134C77.7098 428.387 77.6474 429.121 77.2641 429.475C76.8808 429.829 76.3252 429.906 75.8071 429.966Z" fill="#00160A"/>
<path fill-rule="evenodd" clip-rule="evenodd" d="M71.8511 424.683C69.0185 423.627 68.4481 419.94 68.3317 416.919C68.2547 414.921 68.1777 412.923 68.1007 410.925C68.0576 409.807 68.0176 408.662 68.348 407.593C68.8992 405.808 70.5368 404.408 72.3857 404.141C74.2346 403.875 76.2009 404.755 77.2339 406.311C77.8243 407.201 78.1121 408.254 78.3379 409.298C78.8191 411.522 79.0595 413.799 79.0535 416.076C79.0476 418.282 78.7761 420.587 77.5516 422.422C76.3272 424.257 73.9183 425.453 71.8511 424.683H71.8511ZM74.389 423.021C75.8548 422.559 76.3936 420.789 76.6014 419.266C76.9621 416.623 76.9925 413.934 76.6915 411.284C76.54 409.949 76.2797 408.565 75.4588 407.502C74.6379 406.439 73.1015 405.818 71.9039 406.426C70.4187 407.18 70.2479 409.196 70.2757 410.862C70.3119 413.032 70.3481 415.202 70.3843 417.372C70.4069 418.722 70.4431 420.128 71.0685 421.325C71.6938 422.522 73.1012 423.426 74.389 423.021Z" fill="#00160A"/>
<path fill-rule="evenodd" clip-rule="evenodd" d="M359.405 406.692C361.418 405.406 364.27 406.33 365.787 408.176C367.304 410.022 367.758 412.515 367.898 414.9C367.979 416.282 367.972 417.669 367.879 419.051C367.747 420.99 367.418 422.988 366.342 424.608C365.267 426.227 363.284 427.375 361.385 426.958C359.752 426.601 358.52 425.179 357.929 423.616C357.338 422.053 357.281 420.346 357.231 418.676C357.183 417.086 357.135 415.496 357.087 413.905C357.008 411.258 357.173 408.118 359.405 406.692ZM361.799 425.131C362.898 425.402 364.062 424.729 364.686 423.785C365.31 422.841 365.503 421.682 365.62 420.556C365.88 418.077 365.849 415.569 365.53 413.098C365.367 411.832 365.105 410.523 364.326 409.513C363.547 408.502 362.111 407.893 360.952 408.428C359.562 409.069 359.247 410.877 359.18 412.407C359.051 415.306 359.145 418.214 359.461 421.098C359.642 422.748 360.187 424.733 361.799 425.131Z" fill="#00160A"/>
<path fill-rule="evenodd" clip-rule="evenodd" d="M359.158 412.199C358.904 416 359.215 419.838 360.08 423.547C360.445 425.112 362.792 425.401 364.013 424.356C365.233 423.311 365.558 421.574 365.689 419.973C365.884 417.607 365.821 415.219 365.504 412.865C365.34 411.649 365.088 410.395 364.354 409.411C363.621 408.427 362.28 407.797 361.134 408.237C359.675 408.796 359.263 410.64 359.158 412.199Z" fill="white"/>
<path fill-rule="evenodd" clip-rule="evenodd" d="M355.129 229.239C355.336 228.556 356.217 228.307 356.911 228.47C357.605 228.634 358.196 229.077 358.852 229.358C361.298 230.406 364.1 229.042 366.18 227.382C366.878 226.824 368 226.263 368.528 226.984C367.274 229.114 365.041 230.639 362.602 231.031C362.676 231.905 363.745 232.529 364.543 232.164C364.993 232.42 364.926 233.147 364.544 233.497C364.163 233.848 363.611 233.924 363.096 233.983C361.301 234.192 359.333 234.362 357.826 233.364C358.63 232.731 359.435 232.099 360.239 231.467C358.374 231.215 356.583 230.434 355.129 229.239Z" fill="#00160A"/>
<path fill-rule="evenodd" clip-rule="evenodd" d="M448.287 335.576C459.77 334.64 471.53 337.473 481.327 343.536C484.049 345.22 487.068 347.237 490.179 346.486C497.385 344.748 505.1 345.184 512.063 347.724C514.994 348.793 517.651 345.76 519.488 343.239C524.821 335.919 531.793 329.801 539.745 325.466C545.227 334.466 539.673 346.92 544.441 356.318C551.818 370.864 549.858 389.651 539.637 402.361C550.364 412.841 557.657 426.78 560.152 441.567C558.877 441.943 558.04 440.279 557.732 438.985C554.979 427.43 549.514 416.529 541.899 407.412C540.116 405.277 537.202 403.065 534.85 404.55C516.161 416.35 492.47 419.914 471.137 414.134C467.617 413.18 465.118 417.454 463.988 420.922C461.881 427.389 459.774 433.857 457.667 440.324C457.27 429.902 461.028 419.378 467.937 411.565C457.68 399.486 452.676 383.094 454.438 367.345C454.622 365.706 454.857 363.958 454.127 362.479C450.3 354.73 447.664 346.394 446.34 337.853C446.261 337.343 446.195 336.784 446.465 336.344C446.822 335.759 447.604 335.631 448.287 335.576ZM494.863 356.28C490.807 360.005 487.462 364.502 485.061 369.458C483.642 364.705 484.411 359.347 487.108 355.185C483.46 356.549 480.083 358.632 477.227 361.28C477.23 357.322 479.242 353.416 482.464 351.116C481.069 351.156 479.674 351.197 478.279 351.238C479.732 349.435 481.779 348.12 484.022 347.548C473.748 340.221 460.868 336.63 448.285 337.586C450.504 350.701 455.801 363.285 463.63 374.039C460.285 372.671 457.552 369.877 456.258 366.503C454.823 380.022 458.264 394.007 465.809 405.316C467.213 407.422 468.784 409.466 470.822 410.967C474.203 413.457 478.535 414.22 482.717 414.602C499.443 416.129 516.598 412.575 531.34 404.529C534.173 402.982 536.95 401.25 539.195 398.932C542.167 395.865 544.075 391.899 545.302 387.809C548.521 377.075 547.155 365.047 541.611 355.308C540.61 358.295 539.608 361.283 538.607 364.27C538.185 365.531 536.31 366.846 535.952 365.566C540.924 353.783 541.991 340.39 538.945 327.969C527.589 335.505 518.074 345.794 511.445 357.703C511.167 354.929 511.879 352.066 513.426 349.746C506.257 355.238 500.043 361.974 495.147 369.562C494.257 365.199 494.161 360.677 494.863 356.28Z" fill="#00160A"/>
<path fill-rule="evenodd" clip-rule="evenodd" d="M64.663 231.474C65.6308 231.644 66.6757 231.273 67.3199 230.531C65.3644 230.182 63.4929 229.371 61.9014 228.183C62.5354 227.097 64.1596 227.75 65.3304 228.208C68.1664 229.317 71.7072 228.177 73.3638 225.622C73.8094 224.935 75.003 225.722 74.8721 226.531C74.7412 227.34 73.944 227.84 73.2256 228.233C71.8531 228.985 70.4805 229.738 69.108 230.49C70.2359 230.591 71.3219 231.107 72.1137 231.917C70.6177 233.135 68.5103 233.159 66.581 233.125C66.0572 233.115 65.5037 233.098 65.0604 232.818C64.617 232.539 64.3569 231.899 64.663 231.474Z" fill="#00160A"/>
<path fill-rule="evenodd" clip-rule="evenodd" d="M356.639 210.189C358.192 207.759 362.102 207.337 364.138 209.379C365.307 210.551 365.795 212.23 366.104 213.857C366.523 216.059 366.694 218.308 366.614 220.549C366.539 222.614 366.22 224.755 365.056 226.462C363.892 228.169 361.69 229.308 359.718 228.693C356.765 227.771 356.097 223.963 355.952 220.873C355.875 219.24 355.797 217.607 355.72 215.974C355.627 213.99 355.569 211.862 356.639 210.189ZM357.873 214.157C357.618 217.958 357.93 221.796 358.795 225.506C359.159 227.07 361.507 227.359 362.727 226.314C363.947 225.27 364.273 223.533 364.404 221.932C364.598 219.565 364.536 217.177 364.218 214.824C364.054 213.608 363.802 212.353 363.069 211.369C362.335 210.386 360.995 209.756 359.849 210.195C358.389 210.754 357.977 212.598 357.873 214.157Z" fill="#00160A"/>
<path fill-rule="evenodd" clip-rule="evenodd" d="M65.1583 212.199C64.9036 216 65.2154 219.838 66.0802 223.547C66.4448 225.112 68.7925 225.401 70.0126 224.356C71.2328 223.311 71.5579 221.574 71.6894 219.973C71.8837 217.607 71.8214 215.219 71.5039 212.865C71.3398 211.649 71.0878 210.395 70.3543 209.411C69.6209 208.427 68.28 207.797 67.1342 208.237C65.6749 208.796 65.2628 210.64 65.1583 212.199Z" fill="white"/>
<path fill-rule="evenodd" clip-rule="evenodd" d="M65.7403 227.363C63.5997 226.294 63.0131 223.555 62.7786 221.174C62.5498 218.852 62.4188 216.52 62.386 214.187C62.3641 212.628 62.4028 210.999 63.1348 209.622C63.9309 208.126 65.5467 207.099 67.2399 207.015C68.9331 206.931 70.6426 207.792 71.583 209.203C72.2001 210.129 72.4853 211.233 72.7021 212.324C73.1486 214.572 73.348 216.868 73.2956 219.159C73.2447 221.386 72.9148 223.715 71.5991 225.512C70.2834 227.309 67.7325 228.358 65.7403 227.363ZM65.1689 223.375C65.3246 224.115 65.5401 224.89 66.09 225.41C67.1693 226.43 69.0768 225.921 69.9884 224.749C70.9001 223.577 71.0671 222.003 71.1272 220.519C71.2158 218.329 71.1467 216.132 70.9206 213.952C70.7923 212.715 70.5973 211.438 69.9181 210.396C69.2389 209.355 67.9481 208.614 66.7486 208.942C64.8512 209.461 64.4851 211.952 64.4922 213.919C64.5036 217.085 64.5176 220.277 65.1689 223.375Z" fill="#00160A"/>
<path fill-rule="evenodd" clip-rule="evenodd" d="M462.368 239.319C462.848 232.094 470.115 227.628 474.896 222.19C479.262 217.223 481.822 210.702 481.999 204.091C466.902 203.495 451.88 201 437.399 196.685C435.183 196.025 432.898 195.275 431.218 193.686C427.295 189.976 428.266 183.506 430.288 178.5C432.744 172.424 436.311 166.799 440.761 161.988C442.283 160.343 443.934 158.754 444.93 156.747C445.927 154.74 446.136 152.159 444.792 150.366C442.526 147.346 442.049 143.378 441.813 139.61C441.577 135.841 441.469 131.923 439.757 128.557C438.046 125.192 434.158 122.576 430.547 123.679C429.672 122.342 431.402 120.799 432.925 120.315C438.677 118.487 445.121 120.087 450.163 123.404C455.205 126.721 459.031 131.585 462.317 136.647C463.6 138.624 465.77 140.946 467.861 139.86C482.145 132.443 499.576 131.362 514.667 136.957C516.764 137.735 519.988 138.068 520.416 135.872C522.546 124.938 531.672 115.702 542.58 113.442C538.293 116.517 538.034 122.771 538.892 127.976C539.75 133.182 541.262 138.727 539.121 143.549C537.394 147.441 541.745 151.099 545.268 153.49C550.589 157.101 555.347 161.54 559.319 166.598C563.248 171.602 566.524 178.033 564.729 184.138C562.379 192.129 552.975 195.292 544.883 197.265C536.983 199.191 529.084 201.117 521.184 203.042C521.039 210.749 523.79 218.476 528.773 224.356C532.77 229.073 538.578 233.935 537.307 239.985C534.605 233.551 529.533 228.466 525.46 222.8C521.387 217.133 518.175 210.043 520.018 203.312C516.412 202.022 512.627 204.599 509.9 207.288C507.174 209.977 504.297 213.147 500.473 213.362C494.175 213.716 490.242 206.03 484.085 204.655C483.943 208.777 482.865 212.864 480.955 216.519C478.924 220.406 476.006 223.746 473.117 227.045C469.534 231.137 465.951 235.228 462.368 239.319ZM468.236 141.563C464.407 143.425 470.338 150.703 466.91 153.229C465.148 143.663 460.15 134.723 452.925 128.211C448.232 123.981 442.006 120.648 435.799 121.824C439.428 123.249 441.637 127.022 442.588 130.803C443.538 134.585 443.504 138.543 444.166 142.385C445.33 149.15 448.714 155.514 453.671 160.262C451.413 160.232 449.226 158.845 448.237 156.815C441.287 163.063 435.702 170.821 431.983 179.395C430.516 182.777 429.371 186.81 431.186 190.019C432.718 192.726 435.888 193.983 438.847 194.942C449.493 198.389 460.567 200.512 471.732 201.245C478.404 201.684 485.608 201.795 490.94 205.828C492.878 207.293 494.47 209.221 496.581 210.422C498.693 211.622 501.673 211.867 503.317 210.079C509.735 203.099 519.495 200.393 528.821 198.676C538.147 196.959 547.885 195.81 556.016 190.93C559.068 189.099 561.96 186.564 562.947 183.144C564.288 178.494 561.784 173.642 558.954 169.717C553.247 161.801 545.822 155.131 537.341 150.303C536.971 151.772 536.064 153.098 534.829 153.975C534.43 152.312 535.157 150.617 535.739 149.009C539.336 139.075 537.697 128.105 536.014 117.674C524.976 124.043 519.241 138.368 522.835 150.594C520.73 150.985 519.735 148.035 519.94 145.905C520.145 143.774 520.315 140.99 518.341 140.163C502.458 133.506 483.722 134.029 468.236 141.563Z" fill="#00160A"/>
<path fill-rule="evenodd" clip-rule="evenodd" d="M175.79 368.624C176.899 370.497 177.021 372.918 176.107 374.893C175.622 375.941 173.982 375.904 173.159 375.095C172.336 374.286 172.119 373.06 171.96 371.916C171.816 370.882 171.69 369.791 172.085 368.823C172.479 367.856 173.582 367.095 174.565 367.45C175.108 367.646 175.496 368.127 175.79 368.624Z" fill="#00160A"/>
<path fill-rule="evenodd" clip-rule="evenodd" d="M192.855 442.68C189.343 433.766 188.17 423.942 189.486 414.452C186.177 418.078 180.071 418.696 176.103 415.807C177.052 425.143 175.106 434.753 170.599 442.984C171.904 435.169 173.21 427.354 174.515 419.539C174.854 417.51 174.807 414.794 172.851 414.158C166.752 412.176 161.598 407.462 159.082 401.563C158.29 399.704 155.844 399.043 153.899 399.59C151.955 400.137 150.403 401.568 148.931 402.952C149.771 399.671 152.785 397.065 156.153 396.709C157.296 394.782 155.659 392.121 153.49 391.561C151.321 391.001 149.036 391.979 147.225 393.297C147.083 391.209 149.624 390.187 151.55 389.367C153.475 388.547 155.355 385.956 153.713 384.658C152.998 384.092 151.981 384.193 151.078 384.322C148.467 384.696 145.857 385.069 143.246 385.443C143.543 383.341 146.274 382.801 148.391 382.639C150.507 382.476 153.24 381.445 153.004 379.335C152.097 371.206 154.066 362.962 157.351 355.471C160.073 349.264 152.063 343.049 152.589 336.292C152.629 335.769 152.754 335.196 153.176 334.884C153.68 334.512 154.385 334.66 154.984 334.845C159.108 336.118 162.932 338.352 166.065 341.32C167.585 342.761 170.035 341.779 171.948 340.925C179.004 337.776 187.274 337.45 194.555 340.033C201.131 342.366 206.963 331.113 213.48 333.607C211.816 339.08 210.153 344.554 208.49 350.028C208.031 351.538 207.597 353.272 208.431 354.612C211.241 359.126 212.945 364.324 213.354 369.626C213.641 373.361 214.364 378.406 218.099 378.699C216.472 379.415 214.678 380.306 214.115 381.991C213.552 383.677 215.477 385.9 216.934 384.884C218.192 384.006 220.225 384.739 220.634 386.216C218.479 386.005 216.142 386.24 214.457 387.601C212.772 388.961 212.111 391.712 213.539 393.34C216.672 392.049 220.372 392.219 223.374 393.79C221.585 395.106 219.128 394.717 216.911 394.585C214.694 394.452 211.995 394.964 211.21 397.041C208.592 403.975 202.159 409.325 194.864 410.635C191.271 411.281 190.694 416.141 190.991 419.779C191.612 427.413 192.233 435.046 192.855 442.68ZM195.756 387.814C194.605 388.865 192.62 389.961 191.768 388.656C196.692 383.373 203.443 379.826 210.587 378.769C212.044 378.553 212.367 376.607 212.263 375.138C211.75 367.906 209.675 360.789 206.221 354.415C205.703 355.755 204.063 356.542 202.694 356.107C206.778 349.972 209.465 342.912 210.494 335.613C203.957 338.323 198.149 342.769 193.827 348.372C193.225 346.223 194.187 343.731 196.078 342.544C187.455 339.38 177.545 339.908 169.307 343.971C169.522 345.308 169.736 346.645 169.95 347.982C165.91 343.088 160.643 339.212 154.768 336.81C156.678 343.943 159.462 350.84 163.039 357.299C161.486 357.635 159.799 356.289 159.781 354.7C156.536 361.762 154.752 369.491 154.574 377.26C154.523 379.493 155.422 382.515 157.644 382.285C163.71 381.656 170.007 383.766 174.469 387.922C170.327 386.725 166.185 385.529 162.043 384.332C160.26 383.817 158.216 383.335 156.653 384.336C155.091 385.336 155.276 388.44 157.131 388.476C161.99 387.059 167.48 388.011 171.579 390.979C166.781 389.911 161.764 389.843 156.939 390.781C155.736 393.685 159.823 395.957 162.967 395.942C166.11 395.927 170.046 395.588 171.572 398.336C167.718 398.136 163.864 397.935 160.01 397.735C161.068 404.602 166.971 410.435 173.85 411.409C175.163 411.595 176.024 412.818 177.001 413.714C180.888 417.278 188.351 414.857 189.405 409.69C198.357 409.415 206.883 403.461 210.223 395.151C205.683 395.796 201.142 396.441 196.601 397.086C197.664 395.036 200.189 394.249 202.485 394.01C204.782 393.77 207.21 393.851 209.246 392.762C211.282 391.673 212.605 388.802 211.147 387.011C205.474 389.005 199.8 391 194.126 392.994C196.014 390.18 198.991 388.118 202.288 387.338C204.587 386.795 207.03 386.848 209.23 385.987C211.43 385.127 213.395 382.861 212.773 380.582C206.503 380.982 200.395 383.578 195.756 387.814Z" fill="#00160A"/>
<path fill-rule="evenodd" clip-rule="evenodd" d="M190.07 364.294C189.308 364.254 188.387 364.106 188.105 363.397C189.96 361.296 193.978 361.965 195.053 364.553C193.392 364.467 191.731 364.38 190.07 364.294Z" fill="#00160A"/>
<path fill-rule="evenodd" clip-rule="evenodd" d="M187.222 403.681C187.817 404.397 187.694 405.524 187.135 406.269C186.576 407.014 185.681 407.434 184.783 407.681C183.475 408.04 181.927 408.035 180.931 407.114C179.491 405.781 180.184 403.068 181.955 402.222C183.726 401.376 185.97 402.17 187.222 403.681ZM182.058 404.091C181.608 404.929 182.563 405.96 183.514 405.963C184.466 405.965 185.285 405.332 186.022 404.731C185.054 403.673 183.328 403.409 182.088 404.129L182.058 404.091Z" fill="#00160A"/>
<path fill-rule="evenodd" clip-rule="evenodd" d="M192.199 374.975C191.029 375.564 189.552 374.619 189.109 373.386C188.667 372.153 188.964 370.789 189.304 369.524C189.498 368.803 189.759 368.015 190.408 367.646C191.279 367.151 192.445 367.717 192.951 368.582C193.458 369.447 193.482 370.5 193.493 371.503C193.507 372.808 193.365 374.387 192.199 374.975Z" fill="#00160A"/>
<path fill-rule="evenodd" clip-rule="evenodd" d="M171.156 403.738C174.672 404.19 178.378 402.488 180.325 399.526C182.273 396.564 182.367 392.487 180.557 389.439C179.6 387.826 178.144 385.817 179.303 384.343C179.892 383.594 180.937 383.403 181.888 383.351C182.927 383.295 184.032 383.36 184.9 383.934C185.768 384.509 186.274 385.738 185.746 386.635C183.66 390.177 183.979 394.982 186.515 398.218C189.05 401.453 193.64 402.911 197.578 401.733C198.298 401.517 199.479 401.59 199.337 402.328C199.303 402.507 199.178 402.654 199.052 402.785C196.827 405.083 192.97 404.709 190.105 403.287C187.442 401.966 185.156 399.892 183.583 397.369C182.175 399.77 180.723 402.224 178.567 403.984C176.412 405.745 173.372 406.695 170.79 405.658C170.082 405.374 169.348 404.522 169.859 403.955C170.166 403.616 170.703 403.679 171.156 403.738Z" fill="#00160A"/>
<path fill-rule="evenodd" clip-rule="evenodd" d="M177.385 363.435C177.562 363.989 176.788 364.325 176.21 364.387C175.113 364.506 174.017 364.624 172.921 364.742C172.074 364.834 170.858 364.586 170.951 363.739C172.458 362.151 175.117 361.82 176.967 362.989C177.143 363.1 177.322 363.236 177.385 363.435Z" fill="#00160A"/>
<path fill-rule="evenodd" clip-rule="evenodd" d="M473.204 424.902C472.986 422.819 473.035 420.371 474.686 419.082C476.136 417.95 478.195 418.218 480.006 418.542C482.882 419.056 485.758 419.571 488.634 420.085C490.881 420.487 493.285 420.872 495.374 419.952C497.041 419.218 498.951 420.005 500.773 420.02C502.259 420.033 503.694 419.525 505.093 419.022C509.386 417.482 513.678 415.941 517.971 414.4C518.76 414.117 519.637 413.834 520.414 414.151C521.593 414.631 521.857 416.154 521.948 417.424C522.052 418.872 522.156 420.319 522.26 421.767C522.388 423.535 522.503 425.382 521.809 427.013C521.115 428.645 519.341 429.964 517.624 429.521C513.192 428.379 508.684 427.532 504.139 426.99C503.224 426.881 502.033 426.946 501.732 427.817C501.041 429.815 498.186 429.494 496.101 429.142C491.323 428.335 486.231 429.594 482.379 432.534C481.348 433.322 480.384 434.234 479.194 434.751C478.004 435.268 476.481 435.295 475.536 434.405C474.892 433.798 474.637 432.894 474.43 432.033C473.866 429.686 473.456 427.302 473.204 424.902ZM494.766 423.238C488.966 422.137 483.137 421.186 477.288 420.385C476.365 420.259 475.506 421.021 475.202 421.901C474.898 422.782 475.016 423.746 475.15 424.668C475.444 426.691 475.8 428.706 476.218 430.707C476.349 431.334 476.5 431.99 476.926 432.468C477.351 432.946 478.143 433.162 478.64 432.758C481.81 430.182 485.563 428.328 489.536 427.377C490.731 427.091 491.971 426.876 493.027 426.249C494.084 425.622 494.933 424.455 494.766 423.238ZM511.274 418.757C508.186 419.607 504.907 420.576 502.831 423.014C502.2 423.755 502.071 425.332 503.043 425.296C507.894 425.112 512.779 425.869 517.347 427.512C518.318 427.861 519.414 427.165 519.873 426.241C520.331 425.317 520.316 424.239 520.291 423.208C520.244 421.264 520.197 419.32 520.15 417.377C520.143 417.065 520.098 416.692 519.819 416.554C519.632 416.462 519.409 416.516 519.209 416.571C516.564 417.3 513.919 418.028 511.274 418.757ZM496.188 425.97C496.323 426.426 496.518 426.887 496.879 427.197C497.764 427.959 499.254 427.413 499.847 426.407C500.441 425.401 500.381 424.15 500.245 422.99C500.083 421.599 498.006 421.145 496.953 422.069C495.901 422.992 495.793 424.626 496.188 425.97Z" fill="#00160A"/>
<path fill-rule="evenodd" clip-rule="evenodd" d="M530.746 388.668C528.177 388.354 525.525 388.756 523.165 389.817C522.555 390.091 521.963 389.191 522.227 388.577C522.491 387.964 523.18 387.671 523.81 387.45C527.454 386.168 532.082 385.534 534.68 388.392C533.568 389.153 532.083 388.832 530.746 388.668Z" fill="#00160A"/>
<path fill-rule="evenodd" clip-rule="evenodd" d="M502.71 402.285C502.77 404.269 500.89 405.881 498.938 406.235C496.985 406.589 494.997 406.006 493.098 405.43C491.445 404.928 490.93 402.606 491.802 401.115C492.675 399.623 494.44 398.885 496.145 398.606C497.55 398.376 499.042 398.4 500.333 399C501.623 399.6 502.666 400.862 502.71 402.285ZM493.552 402.761C493.645 403.355 494.341 403.613 494.925 403.757C496.06 404.035 497.229 404.315 498.385 404.143C499.54 403.972 500.693 403.236 500.994 402.107C499.277 400.333 496.212 400.089 494.237 401.57C493.852 401.86 493.478 402.285 493.552 402.761Z" fill="#00160A"/>
<path fill-rule="evenodd" clip-rule="evenodd" d="M472.994 392.165C469.566 392.173 466.139 392.18 462.711 392.188C461.989 392.19 460.97 391.81 461.214 391.13C464.793 389.574 468.947 389.385 472.653 390.61C473.335 390.835 474.077 391.755 473.442 392.091C473.307 392.163 473.147 392.165 472.994 392.165Z" fill="#00160A"/>
<path fill-rule="evenodd" clip-rule="evenodd" d="M510.916 379.121C511.111 377.897 511.447 376.479 512.58 375.975C513.671 375.489 514.997 376.182 515.625 377.198C516.252 378.213 528.483 381.403 528.572 382.594C527.026 382.735 513.356 380.929 511.81 381.07C510.983 381.146 510.785 379.942 510.916 379.121Z" fill="#00160A"/>
<path fill-rule="evenodd" clip-rule="evenodd" d="M524.336 393.758C523.838 393.654 523.324 393.544 522.909 393.25C522.61 393.039 522.376 392.736 522.246 392.394C525.739 390.922 530.188 392.256 532.294 395.408C529.641 394.858 526.989 394.308 524.336 393.758Z" fill="#00160A"/>
<path fill-rule="evenodd" clip-rule="evenodd" d="M517.147 372.47C518.035 371.049 520.249 371.715 521.589 372.721C522.909 373.713 524.091 374.888 525.089 376.203C525.045 376.976 523.844 376.801 523.194 376.381C521.179 375.077 519.163 373.773 517.147 372.47Z" fill="#00160A"/>
<path fill-rule="evenodd" clip-rule="evenodd" d="M468.689 395.911C470.102 395.428 471.515 394.945 472.928 394.462C473.495 394.268 474.099 394.072 474.681 394.215C475.262 394.358 475.763 394.989 475.54 395.544C472.764 396.582 469.952 397.524 467.111 398.369C466.66 397.98 466.752 397.212 467.143 396.763C467.534 396.314 468.125 396.103 468.689 395.911Z" fill="#00160A"/>
<path fill-rule="evenodd" clip-rule="evenodd" d="M480.412 378.094C480.952 378.459 481.229 379.094 481.48 379.695C481.813 380.494 482.153 381.356 481.973 382.203C481.792 383.05 480.842 383.78 480.064 383.401C479.182 382.97 478.224 384.549 477.355 384.093C476.944 383.877 476.864 383.332 476.834 382.869C476.753 381.623 476.688 380.301 477.279 379.2C477.87 378.1 479.377 377.395 480.412 378.094Z" fill="#00160A"/>
<path fill-rule="evenodd" clip-rule="evenodd" d="M469.63 377.537C470.932 374.336 474.666 372.331 478.054 373.016C478.515 373.109 479.084 373.453 478.92 373.894C478.834 374.127 478.575 374.238 478.342 374.324C475.438 375.395 472.534 376.466 469.63 377.537Z" fill="#00160A"/>
<path fill-rule="evenodd" clip-rule="evenodd" d="M486.926 393.718C486.197 393.81 485.267 393.74 484.993 393.058C485.483 392.667 486.069 392.252 486.679 392.394C487.289 392.536 487.51 393.602 486.897 393.73L486.926 393.718Z" fill="#00160A"/>
<path fill-rule="evenodd" clip-rule="evenodd" d="M501.54 392.671C502.307 392.543 502.712 391.464 502.217 390.863C501.723 390.262 500.585 390.451 500.312 391.18C500.039 391.909 500.772 392.799 501.54 392.671Z" fill="#00160A"/>
<path fill-rule="evenodd" clip-rule="evenodd" d="M484.48 397.879C483.404 397.723 482.021 397.023 482.352 395.988C483.537 395.305 485.007 395.889 486.361 396.085C487.715 396.281 489.542 395.54 489.318 394.19C489.545 394.759 489.771 395.328 489.998 395.896C491.376 395.529 492.662 394.823 493.711 393.857C494.304 393.311 494.833 392.373 494.307 391.763C493.087 390.351 494.412 387.704 496.273 387.834C498.135 387.964 499.08 390.769 497.676 391.998C497.312 392.317 497.678 392.903 498.055 393.205C500.689 395.32 504.36 396.071 507.612 395.161C509.067 394.754 510.925 394.157 511.849 395.351C507.21 398.701 500.16 398.119 496.134 394.053C493.868 397.749 488.77 398.5 484.48 397.879Z" fill="#00160A"/>
<path fill-rule="evenodd" clip-rule="evenodd" d="M506.341 391.521C506.788 391.722 506.857 392.447 506.457 392.73C506.057 393.013 505.397 392.706 505.355 392.217C505.525 391.854 505.917 391.607 506.317 391.611L506.341 391.521Z" fill="#00160A"/>
<path fill-rule="evenodd" clip-rule="evenodd" d="M489.492 392.032C489.961 392.751 491.334 391.856 490.866 391.137C490.398 390.418 489.024 391.312 489.492 392.032Z" fill="#00160A"/>
<path fill-rule="evenodd" clip-rule="evenodd" d="M450.498 178.023C448.697 178.223 446.754 178.663 445.159 177.801C447.046 176.027 449.863 175.681 452.45 175.809C456.835 176.026 461.16 177.357 464.907 179.645C464.121 181.094 461.948 180.382 460.456 179.679C457.373 178.227 453.885 177.647 450.498 178.023Z" fill="#00160A"/>
<path fill-rule="evenodd" clip-rule="evenodd" d="M513.834 162.958C513.547 161.874 513.532 160.988 514.521 160.46C515.959 159.69 520.501 159.761 520.992 160.881C521.483 162.001 519.615 167.151 516.995 167.151C515.947 167.151 514.121 164.041 513.834 162.958Z" fill="#00160A"/>
<path fill-rule="evenodd" clip-rule="evenodd" d="M542.652 175.717C537.013 176.068 531.43 177.3 526.166 179.354C525.444 179.636 524.334 179.746 524.17 178.988C525.089 177.444 526.934 176.752 528.659 176.248C532.52 175.119 536.495 174.38 540.504 174.044C541.083 173.996 541.702 173.964 542.209 174.249C542.716 174.534 543.014 175.262 542.652 175.717Z" fill="#00160A"/>
<path fill-rule="evenodd" clip-rule="evenodd" d="M543.789 182.043C539.329 182.442 534.87 182.84 530.411 183.239C529.597 183.312 528.379 182.768 528.847 182.099C533.435 180.666 538.251 179.967 543.056 180.039C544.245 180.057 545.624 180.228 546.248 181.239C545.617 181.853 544.666 181.964 543.789 182.043Z" fill="#00160A"/>
<path fill-rule="evenodd" clip-rule="evenodd" d="M478.212 167.524C477.266 168.635 475.349 168.317 474.337 167.267C473.325 166.216 472.979 164.709 472.675 163.282C472.516 162.538 472.376 161.692 472.82 161.074C473.285 160.425 479.755 160.379 480.063 160.935C480.37 161.492 480.18 161.961 480.063 162.393C479.85 163.178 478.896 166.719 478.212 167.524Z" fill="#00160A"/>
<path fill-rule="evenodd" clip-rule="evenodd" d="M444.431 185.164C450.055 182.848 456.332 182.142 462.33 183.151C462.972 183.259 463.678 183.429 464.043 183.968C464.408 184.507 464.056 185.471 463.411 185.38C456.443 184.389 448.879 184.461 442.949 188.252C442.327 187.898 442.284 186.952 442.682 186.356C443.08 185.76 443.768 185.437 444.431 185.164Z" fill="#00160A"/>
<path fill-rule="evenodd" clip-rule="evenodd" d="M485.722 190.706C485.433 189.872 486.054 188.852 486.927 188.727C487.276 188.954 487.505 189.355 487.524 189.771C487.251 190.413 486.536 190.837 485.842 190.768L485.722 190.706Z" fill="#00160A"/>
<path fill-rule="evenodd" clip-rule="evenodd" d="M476.624 154.609C477.598 154.624 478.935 155.276 478.508 156.152C474.273 156.401 470.091 157.521 466.299 159.424C465.74 159.368 465.474 158.626 465.69 158.107C465.906 157.588 466.42 157.265 466.914 156.997C469.875 155.388 473.255 154.558 476.624 154.609Z" fill="#00160A"/>
<path fill-rule="evenodd" clip-rule="evenodd" d="M500.261 189.994C500.878 189.33 502.121 189.439 502.612 190.201C502.131 191.12 500.516 191.029 500.141 190.062L500.261 189.994Z" fill="#00160A"/>
<path fill-rule="evenodd" clip-rule="evenodd" d="M504.552 189.552C504.982 188.927 506.201 189.468 506.027 190.205C505.846 190.577 505.443 190.829 505.03 190.829C504.554 190.647 504.319 190.009 504.564 189.562L504.552 189.552Z" fill="#00160A"/>
<path fill-rule="evenodd" clip-rule="evenodd" d="M489.982 186.156C489.552 186.781 488.333 186.24 488.507 185.502C488.688 185.131 489.091 184.879 489.504 184.879C489.98 185.061 490.215 185.699 489.97 186.146L489.982 186.156Z" fill="#00160A"/>
<path fill-rule="evenodd" clip-rule="evenodd" d="M482.784 187.862C482.747 188.586 483.648 189.171 484.294 188.841C484.94 188.511 484.996 187.438 484.387 187.044C483.778 186.649 482.822 187.138 482.784 187.862Z" fill="#00160A"/>
<path fill-rule="evenodd" clip-rule="evenodd" d="M501.153 187.41C501.769 187.872 502.817 187.423 502.908 186.659C503 185.895 502.087 185.211 501.38 185.514C500.672 185.817 500.537 186.949 501.153 187.41Z" fill="#00160A"/>
<path fill-rule="evenodd" clip-rule="evenodd" d="M512.588 156.777C516.209 154.155 521.223 155.358 525.498 156.667C526.167 156.872 527.005 157.486 526.618 158.07C526.388 158.418 525.882 158.406 525.468 158.356C521.175 157.829 516.881 157.303 512.588 156.777Z" fill="#00160A"/>
<path fill-rule="evenodd" clip-rule="evenodd" d="M496.389 187.412C497.692 191.462 502.376 194.089 506.512 193.088C508.331 192.648 510.408 191.66 511.9 192.789C509.284 194.979 505.603 195.831 502.291 195.012C498.98 194.193 496.12 191.724 494.826 188.568C492.261 192.142 488.195 194.601 483.838 195.212C483.188 195.303 482.449 195.33 481.957 194.894C481.464 194.459 481.594 193.421 482.25 193.375C485.846 193.125 489.334 191.545 491.895 189.009C493.285 187.631 494.428 185.417 493.316 183.807C492.28 182.306 491.447 180.666 490.847 178.945C490.624 178.307 490.451 177.54 490.861 177.003C491.165 176.606 491.692 176.469 492.179 176.357C493.659 176.018 495.19 175.677 496.681 175.96C498.172 176.242 499.624 177.321 499.845 178.823C500.311 181.996 495.406 184.359 496.389 187.412Z" fill="#00160A"/>
<path fill-rule="evenodd" clip-rule="evenodd" d="M201.219 176.474C201.541 175.539 203.281 175.863 203.245 176.851C202.881 177.779 201.155 177.437 201.171 176.44L201.219 176.474Z" fill="#00160A"/>
<path fill-rule="evenodd" clip-rule="evenodd" d="M185.512 180.772C185.314 179.775 183.41 180.153 183.608 181.15C183.806 182.147 185.71 181.769 185.512 180.772Z" fill="#00160A"/>
<path fill-rule="evenodd" clip-rule="evenodd" d="M188.212 182.46C188.668 181.898 189.472 181.645 190.167 181.845C190.395 182.129 190.467 182.53 190.352 182.875C189.836 183.085 189.32 183.295 188.804 183.505C188.585 183.175 188.366 182.846 188.147 182.516L188.212 182.46Z" fill="#00160A"/>
<path fill-rule="evenodd" clip-rule="evenodd" d="M188.443 180.097C188.096 179.855 187.863 179.458 187.822 179.037C188.199 178.256 189.531 178.246 189.918 179.023C189.562 179.535 189.035 179.926 188.442 180.118L188.443 180.097Z" fill="#00160A"/>
<path fill-rule="evenodd" clip-rule="evenodd" d="M176.31 182.672C175.794 183.344 174.63 182.471 174.769 181.635C174.909 180.799 175.691 180.255 176.353 179.726C177.767 178.598 178.906 177.127 180.445 176.177C181.984 175.227 184.188 174.953 185.471 176.227C181.86 177.382 178.618 179.663 176.31 182.672Z" fill="#00160A"/>
<path fill-rule="evenodd" clip-rule="evenodd" d="M171.896 173.531C173.989 171.572 176.591 170.162 179.375 169.479C179.97 169.333 180.619 169.225 181.175 169.48C181.731 169.736 182.083 170.501 181.71 170.986C178.168 171.615 174.834 173.37 172.31 175.935C171.851 176.401 170.981 175.838 170.958 175.184C170.935 174.53 171.418 173.978 171.896 173.531Z" fill="#00160A"/>
<path fill-rule="evenodd" clip-rule="evenodd" d="M198.395 177.111C198.332 176.63 199.155 176.893 199.4 177.31C199.066 177.809 198.731 178.308 198.397 178.807C197.702 178.583 197.67 177.392 198.352 177.13L198.395 177.111Z" fill="#00160A"/>
<path fill-rule="evenodd" clip-rule="evenodd" d="M219.098 174.499C216.07 173.567 213.041 172.634 210.012 171.702C209.304 171.483 208.528 171.213 208.169 170.565C212.35 169.618 216.947 170.738 220.224 173.501C220.362 173.617 220.505 173.747 220.55 173.922C220.71 174.542 219.71 174.688 219.098 174.499Z" fill="#00160A"/>
<path fill-rule="evenodd" clip-rule="evenodd" d="M199.038 179.945C199.375 179.541 200.092 179.552 200.416 179.966C200.741 180.38 200.58 181.079 200.106 181.309C199.402 181.239 198.798 180.605 198.762 179.899L199.038 179.945Z" fill="#00160A"/>
<path fill-rule="evenodd" clip-rule="evenodd" d="M216.959 181.066C213.818 179.963 210.677 178.861 207.535 177.758C207.279 177.668 207.007 177.567 206.842 177.35C206.48 176.875 206.899 176.135 207.469 175.957C208.039 175.779 208.651 175.979 209.215 176.176C210.907 176.77 212.6 177.363 214.292 177.956C215.741 178.464 217.526 179.639 216.959 181.066Z" fill="#00160A"/>
<path fill-rule="evenodd" clip-rule="evenodd" d="M628.339 44.6669C639.744 49.2855 647.503 60.4039 651.101 72.1703C654.7 83.9368 654.735 96.4548 654.74 108.759C654.777 199.924 654.814 291.088 654.85 382.252C654.85 395.589 654.748 409.45 648.962 421.467C643.658 432.484 633.618 441.12 621.932 444.717C613.451 447.327 604.421 447.346 595.548 447.346C427.536 447.317 259.523 447.288 91.511 447.259C83.1405 447.257 74.1905 447.084 67.3002 442.331C56.2665 434.721 55.1754 419.126 55.1712 405.722C55.1382 301.561 55.1053 197.401 55.0723 93.2405C55.0723 85.4986 55.0996 77.567 57.7748 70.302C62.3923 57.7623 74.3871 49.0942 87.1386 45.0983C99.89 41.1023 113.498 41.0814 126.861 41.0945C157.098 41.1289 187.336 41.1619 217.574 41.1949C346.649 41.3357 475.724 41.4765 604.8 41.6174C612.764 41.6261 620.958 41.6774 628.339 44.6669ZM347.241 445.158C347.17 378.877 347.098 312.596 347.026 246.316C251.694 246.355 156.361 246.393 61.0288 246.432C60.2084 246.433 59.2899 246.473 58.7242 247.067C58.193 247.625 58.1613 248.477 58.1607 249.248C58.118 304.866 58.0753 360.485 58.0324 416.104C58.0324 419.001 58.0324 421.925 58.644 424.757C60.6725 434.126 69.2144 440.976 78.3698 443.817C87.5252 446.658 97.3279 446.227 106.907 445.869C143.998 444.484 181.127 444.607 218.244 444.73C261.243 444.873 304.242 445.015 347.241 445.158ZM349.69 246.606C349.745 312.711 349.801 378.817 349.856 444.922C433.417 444.844 516.978 444.766 600.539 444.688C606.822 444.682 613.174 444.668 619.285 443.207C633.665 439.769 645.558 427.981 649.792 413.815C652.294 405.447 652.294 396.565 652.274 387.831C652.167 340.64 652.059 293.448 651.951 246.257C551.197 246.374 450.444 246.49 349.69 246.606ZM349.659 44.5777C349.746 110.855 349.833 177.133 349.921 243.411C449.756 243.418 549.591 243.425 649.426 243.431C650.257 243.431 651.212 243.374 651.719 242.715C652.083 242.243 652.099 241.598 652.099 241.002C652.113 192.692 652.128 144.382 652.142 96.0711C652.142 88.9395 652.135 81.7168 650.347 74.8132C645.459 55.9479 626.044 41.9795 606.604 43.3409C592.188 44.3504 577.724 44.3644 563.273 44.3779C492.068 44.4445 420.863 44.5111 349.659 44.5777ZM347.236 243.155C347.157 176.885 347.078 110.615 346.999 44.3455C264.684 44.3161 182.37 44.2867 100.056 44.2574C80.6433 44.2504 62.3302 59.5302 58.8595 78.6304C57.9546 83.6105 57.9602 88.7053 57.967 93.7669C58.0506 143.575 58.1327 193.384 58.2148 243.193C154.555 243.592 250.896 243.58 347.236 243.155Z" fill="#00160A"/>
<path fill-rule="evenodd" clip-rule="evenodd" d="M196.07 177.116C195.485 178.649 196.229 180.423 197.407 181.565C199.123 183.23 201.767 183.869 204.055 183.17C205.701 182.667 207.695 181.611 208.913 182.827C205.284 186.483 198.393 185.968 195.347 181.813C194.396 184.293 192.217 186.269 189.656 186.974C187.094 187.679 184.211 187.097 182.124 185.453C183.658 184.182 185.932 185.174 187.925 185.185C190.032 185.198 192.092 183.908 193.003 182.008C193.913 180.108 193.626 177.694 192.296 176.06C190.94 174.393 189.89 172.478 189.214 170.438C189.058 169.965 188.921 169.451 189.072 168.977C189.382 168.006 190.629 167.776 191.647 167.725C193.733 167.62 195.821 167.564 197.91 167.555C198.913 167.551 200.129 167.687 200.551 168.598C200.828 169.197 200.628 169.903 200.384 170.517C199.75 172.118 198.836 173.609 197.698 174.901C197.089 175.593 196.399 176.255 196.07 177.116Z" fill="#00160A"/>
<path fill-rule="evenodd" clip-rule="evenodd" d="M213.928 136.336C210.841 135.762 207.589 136.107 204.691 137.318C204.289 137.486 203.824 137.67 203.436 137.471C202.961 137.229 202.912 136.519 203.207 136.075C203.502 135.632 204.02 135.398 204.517 135.207C209.641 133.242 215.619 133.644 220.435 136.276C218.6 137.554 216.126 136.745 213.928 136.336Z" fill="#00160A"/>
<path fill-rule="evenodd" clip-rule="evenodd" d="M212.416 151.94C212.155 152.449 211.842 152.974 211.332 153.233C210.575 153.618 209.593 153.258 209.076 152.584C208.56 151.91 208.435 151.008 208.498 150.161C208.627 148.432 210.123 146.491 211.755 147.077C213.505 147.706 213.261 150.284 212.416 151.94Z" fill="#00160A"/>
<path fill-rule="evenodd" clip-rule="evenodd" d="M182.45 148.983C182.634 150.453 181.984 152.1 180.64 152.722C179.295 153.345 177.383 152.502 177.239 151.027C177.189 150.514 177.339 150.005 177.496 149.514C177.954 148.081 178.893 146.397 180.392 146.525C181.544 146.624 182.306 147.835 182.45 148.983Z" fill="#00160A"/>
<path fill-rule="evenodd" clip-rule="evenodd" d="M169.358 138.45C169.118 137.681 170.048 137.095 170.817 136.855C175.343 135.44 180.235 135.216 184.871 136.21C185.553 136.356 186.304 136.583 186.644 137.191C186.984 137.8 186.464 138.797 185.801 138.579C181.247 137.082 176.19 137.166 171.688 138.813C170.856 139.117 169.622 139.295 169.358 138.45Z" fill="#00160A"/>
<path fill-rule="evenodd" clip-rule="evenodd" d="M236.178 99.7629C235.733 106.823 235.288 113.904 235.706 120.965C236.03 126.462 236.877 131.928 236.954 137.433C237.178 153.346 230.939 168.759 222.453 182.222C242.827 195.925 258.187 216.918 265.082 240.484C262.145 238.652 260.881 235.1 259.648 231.866C252.838 214.003 240.854 198.147 225.527 186.721C223.329 185.082 219.593 183.843 218.378 186.301C215.631 191.852 211.573 196.749 206.627 200.478C204.832 201.831 202.824 203.167 201.422 204.866C201.434 205.005 201.44 205.144 201.44 205.286C201.44 208.158 199.112 210.486 196.24 210.486C194.288 210.486 192.587 209.41 191.698 207.819C178.752 202.127 168.218 191.078 163.263 177.82C153.798 184.384 148.34 195.554 146.248 206.881C144.155 218.208 145.045 229.848 145.942 241.332C144.996 241.972 144.112 240.425 144.004 239.288C142.912 227.79 142.299 216.084 144.684 204.783C147.07 193.483 152.771 182.499 162.19 175.814C153.449 156.784 156.848 133.437 146.185 115.413C145.551 114.343 145.018 112.674 146.127 112.11C146.538 111.902 147.029 111.966 147.484 112.043C154.919 113.305 162.004 116.575 167.788 121.414C169.28 122.663 171.512 121.752 173.255 120.888C186.653 114.253 202.653 113.065 216.884 117.647C220.46 110.777 225.727 104.795 232.09 100.378C233.317 99.5259 235.074 98.7565 236.178 99.7629ZM190.218 192.622C194.804 193.024 199.476 193.421 203.97 192.424C214.249 190.142 221.624 181.047 226.333 171.63C231.726 160.846 234.747 148.884 235.121 136.833C231.797 139.507 228.472 142.181 225.147 144.855C223.178 146.439 221.027 148.388 221.065 150.915C221.119 154.508 218.893 158.034 215.627 159.532C212.36 161.029 208.235 160.413 205.549 158.028C202.516 155.335 200.794 150.46 196.754 150.105C191.99 149.686 189.721 155.795 185.888 158.654C181.003 162.298 173.119 159.562 170.68 153.977C170.217 152.915 170.383 151.029 169.32 150.382C165.931 148.32 162.19 148.244 157.774 148.391C158.561 158.012 160.89 167.505 164.645 176.398C166.309 180.338 168.337 184.273 171.603 187.034C176.634 191.288 183.655 192.047 190.218 192.622ZM217.821 119.828C216.339 122.656 213.853 126.196 210.871 125.054C212.786 123.413 214.441 121.469 215.754 119.316C200.917 115.087 184.481 116.773 170.812 123.928C171.989 125.352 173.435 126.551 175.053 127.443C173.342 129.073 170.701 127.076 169.082 125.354C163.572 119.496 156.039 115.576 148.079 114.426C151.346 119.667 154.366 130.051 157.139 145.577C161.633 146.593 164.654 147.117 166.201 147.15C167.982 147.188 170.151 147.004 170.93 145.401C172.986 141.169 178.137 138.7 182.724 139.748C187.311 140.795 190.88 145.255 190.895 149.96C193.871 148.011 197.851 147.702 201.092 149.168C201.43 145.163 204.463 141.526 208.342 140.474C212.221 139.422 216.676 141.029 218.991 144.314C219.998 145.743 222.226 144.693 223.561 143.565C226.329 141.228 229.096 138.89 231.863 136.553C233.423 135.236 235.138 133.527 234.811 131.512C233.192 121.534 232.99 111.327 234.212 101.293C227.363 106.032 221.686 112.451 217.821 119.828ZM210.748 191.67C204.087 196.194 195.297 195.405 187.304 194.437C182.937 193.908 178.419 193.329 174.665 191.036C173.894 190.565 172.883 190.026 172.17 190.582C176.645 196.167 182.44 200.687 188.946 203.668C189.912 204.112 191.338 204.373 191.796 203.413C192.85 201.206 196.048 200.388 198.032 201.819C199.646 202.982 201.877 201.865 203.472 200.675C207.053 198.004 210.321 194.914 213.19 191.489C212.77 190.657 211.519 191.146 210.748 191.67ZM172.978 154.18C174.986 157.569 179.567 159.166 183.246 157.76C186.926 156.354 189.275 152.109 188.511 148.244C187.747 144.38 183.961 141.347 180.023 141.447C176.085 141.546 172.456 144.766 171.888 148.664C171.613 150.555 172.004 152.536 172.978 154.18ZM203.568 148.32C203.095 151.119 204.191 154.07 206.177 156.099C207.636 157.589 209.647 158.642 211.731 158.565C215.457 158.427 218.167 154.864 219.317 151.318C219.617 150.393 219.852 149.409 219.67 148.454C219.433 147.214 218.533 146.212 217.592 145.37C215.232 143.258 212.048 141.657 208.961 142.366C206.194 143.002 204.04 145.52 203.568 148.32Z" fill="#00160A"/>
</svg>
