<svg xmlns="http://www.w3.org/2000/svg" xmlns:xlink="http://www.w3.org/1999/xlink" width="40" height="40" viewBox="0 0 40 40">
  <defs>
    <clipPath id="clip-path">
      <path id="Path_88" data-name="Path 88" d="M152,147h26.166v30.5H152Zm0,0" transform="translate(-152 -147)"/>
    </clipPath>
  </defs>
  <g id="Group_348" data-name="Group 348" transform="translate(-7116 -308)">
    <path id="Path_93" data-name="Path 93" d="M10,0H30A10,10,0,0,1,40,10V30A10,10,0,0,1,30,40H10A10,10,0,0,1,0,30V10A10,10,0,0,1,10,0Z" transform="translate(7116 308)" fill="#fff"/>
    <g id="surface1" transform="translate(6970.917 165.75)">
      <g id="Group_308" data-name="Group 308" transform="translate(152 147)" clip-path="url(#clip-path)">
        <path id="Path_87" data-name="Path 87" d="M174.329,151.189a13.042,13.042,0,0,0-18.307-.058l-.06.06a12.906,12.906,0,0,0,0,18.284l7.821,7.784a1.744,1.744,0,0,0,2.472-2.462l-7.821-7.785a9.43,9.43,0,0,1-.034-13.329l.035-.034a9.53,9.53,0,0,1,13.418,0,9.809,9.809,0,0,1,1.014,12.04,1.745,1.745,0,0,0,2.946,1.872,13.168,13.168,0,0,0-1.486-16.372M171.2,169.872a1.745,1.745,0,0,1-2.473,2.463l-7.819-7.785a5.966,5.966,0,0,1,4.237-10.186h0a5.975,5.975,0,0,1,5.741,7.679,1.748,1.748,0,0,1-3.352-1,2.491,2.491,0,0,0-2.389-3.2h0a2.486,2.486,0,0,0-1.765,4.245l7.819,7.784" transform="translate(-152.107 -147.26)" fill="#152d35"/>
      </g>
    </g>
  </g>
</svg>
