<svg width="1737" height="572" viewBox="0 0 1737 572" fill="none" xmlns="http://www.w3.org/2000/svg">
<rect width="572" height="572" rx="180" fill="#152D35"/>
<path d="M420.776 119.26C347.33 45.8707 227.967 45.5716 154.137 118.42L153.282 119.274C79.5512 192.977 79.5797 312.852 153.325 386.526L267.218 500.305C272.175 505.262 278.697 507.74 285.206 507.74C291.729 507.74 298.252 505.262 303.208 500.305C313.149 490.364 313.149 474.257 303.208 464.316L189.315 350.522C135.594 296.858 135.423 209.611 188.802 155.719L189.329 155.207C243.235 101.386 330.909 101.4 384.772 155.221C429.008 199.428 435.36 275.068 399.513 331.181C391.95 343.031 395.439 358.74 407.289 366.302C419.152 373.893 434.876 370.404 442.438 358.554C491.616 281.548 482.515 180.928 420.79 119.26H420.776ZM375.216 392.351C385.142 402.292 385.157 418.399 375.216 428.326C370.259 433.297 363.737 435.789 357.228 435.789C350.691 435.789 344.182 433.297 339.198 428.34L225.318 314.561C191.294 280.551 191.294 225.221 225.318 191.196C241.796 174.747 263.715 165.675 287.029 165.675H287.058C310.372 165.675 332.276 174.761 348.754 191.239C371.456 213.912 379.859 247.125 370.658 277.916C366.614 291.375 352.457 299.037 338.97 295.007C325.511 290.99 317.849 276.819 321.851 263.346C325.696 250.514 322.207 236.657 312.75 227.214C305.871 220.321 296.756 216.561 287.043 216.547H287.029C277.302 216.547 268.201 220.321 261.322 227.186C247.137 241.343 247.137 264.415 261.322 278.571L375.216 392.351Z" fill="white"/>
<path d="M751.822 350.818C744.146 350.818 736.47 350.549 728.794 350.01C721.253 349.606 713.375 348.529 705.16 346.778V211.034C711.624 209.822 718.694 208.947 726.37 208.408C734.046 207.735 741.183 207.398 747.782 207.398C756.67 207.398 764.817 208.071 772.224 209.418C779.765 210.63 786.229 212.785 791.616 215.882C797.003 218.979 801.177 223.087 804.14 228.204C807.237 233.187 808.786 239.381 808.786 246.788C808.786 257.965 803.399 266.786 792.626 273.25C801.514 276.617 807.574 281.195 810.806 286.986C814.038 292.777 815.654 299.308 815.654 306.58C815.654 321.259 810.267 332.301 799.494 339.708C788.855 347.115 772.965 350.818 751.822 350.818ZM735.864 287.996V324.154C738.153 324.423 740.645 324.625 743.338 324.76C746.031 324.895 748.994 324.962 752.226 324.962C761.653 324.962 769.261 323.615 775.052 320.922C780.843 318.229 783.738 313.246 783.738 305.974C783.738 299.51 781.314 294.931 776.466 292.238C771.618 289.41 764.683 287.996 755.66 287.996H735.864ZM735.864 263.958H751.216C760.912 263.958 767.847 262.746 772.022 260.322C776.197 257.763 778.284 253.723 778.284 248.202C778.284 242.546 776.129 238.573 771.82 236.284C767.511 233.995 761.181 232.85 752.832 232.85C750.139 232.85 747.243 232.917 744.146 233.052C741.049 233.052 738.288 233.187 735.864 233.456V263.958ZM881.279 351.02C872.525 350.885 865.388 349.943 859.867 348.192C854.48 346.441 850.171 344.017 846.939 340.92C843.841 337.688 841.687 333.85 840.475 329.406C839.397 324.827 838.859 319.71 838.859 314.054V197.096L868.957 192.248V307.994C868.957 310.687 869.159 313.111 869.563 315.266C869.967 317.421 870.707 319.239 871.785 320.72C872.997 322.201 874.68 323.413 876.835 324.356C878.989 325.299 881.885 325.905 885.521 326.174L881.279 351.02ZM993.471 345.364C988.353 346.845 981.755 348.192 973.675 349.404C965.595 350.751 957.111 351.424 948.223 351.424C939.2 351.424 931.659 350.212 925.599 347.788C919.673 345.364 914.96 341.997 911.459 337.688C907.957 333.244 905.466 327.992 903.985 321.932C902.503 315.872 901.763 309.206 901.763 301.934V242.748H931.861V298.298C931.861 307.994 933.14 314.997 935.699 319.306C938.257 323.615 943.038 325.77 950.041 325.77C952.195 325.77 954.485 325.703 956.909 325.568C959.333 325.299 961.487 325.029 963.373 324.76V242.748H993.471V345.364ZM1016.67 296.682C1016.67 287.255 1018.09 279.041 1020.92 272.038C1023.88 264.901 1027.72 258.975 1032.43 254.262C1037.14 249.549 1042.53 245.98 1048.59 243.556C1054.78 241.132 1061.11 239.92 1067.58 239.92C1082.66 239.92 1094.58 244.566 1103.33 253.858C1112.09 263.015 1116.46 276.549 1116.46 294.46C1116.46 296.211 1116.39 298.163 1116.26 300.318C1116.13 302.338 1115.99 304.156 1115.86 305.772H1047.58C1048.25 311.967 1051.15 316.882 1056.27 320.518C1061.38 324.154 1068.25 325.972 1076.87 325.972C1082.39 325.972 1087.78 325.501 1093.03 324.558C1098.42 323.481 1102.79 322.201 1106.16 320.72L1110.2 345.162C1108.58 345.97 1106.43 346.778 1103.74 347.586C1101.04 348.394 1098.01 349.067 1094.65 349.606C1091.41 350.279 1087.91 350.818 1084.14 351.222C1080.37 351.626 1076.6 351.828 1072.83 351.828C1063.27 351.828 1054.92 350.414 1047.78 347.586C1040.78 344.758 1034.92 340.92 1030.21 336.072C1025.63 331.089 1022.2 325.231 1019.91 318.498C1017.75 311.765 1016.67 304.493 1016.67 296.682ZM1087.37 285.168C1087.24 282.609 1086.77 280.118 1085.96 277.694C1085.29 275.27 1084.14 273.115 1082.53 271.23C1081.04 269.345 1079.09 267.796 1076.67 266.584C1074.38 265.372 1071.48 264.766 1067.98 264.766C1064.62 264.766 1061.72 265.372 1059.3 266.584C1056.87 267.661 1054.85 269.143 1053.24 271.028C1051.62 272.913 1050.34 275.135 1049.4 277.694C1048.59 280.118 1047.98 282.609 1047.58 285.168H1087.37ZM1178.88 209.014C1181.3 213.458 1184.06 218.979 1187.16 225.578C1190.39 232.042 1193.69 239.112 1197.06 246.788C1200.56 254.329 1203.99 262.073 1207.36 270.018C1210.73 277.963 1213.89 285.437 1216.85 292.44C1219.82 285.437 1222.98 277.963 1226.35 270.018C1229.71 262.073 1233.08 254.329 1236.45 246.788C1239.95 239.112 1243.25 232.042 1246.34 225.578C1249.58 218.979 1252.4 213.458 1254.83 209.014H1283.51C1284.86 218.306 1286.07 228.743 1287.15 240.324C1288.36 251.771 1289.37 263.756 1290.18 276.28C1291.12 288.669 1291.93 301.126 1292.6 313.65C1293.41 326.174 1294.08 337.957 1294.62 349H1263.92C1263.51 335.399 1262.98 320.585 1262.3 304.56C1261.63 288.535 1260.62 272.375 1259.27 256.08C1256.85 261.736 1254.16 267.998 1251.19 274.866C1248.23 281.734 1245.27 288.602 1242.3 295.47C1239.48 302.338 1236.72 308.937 1234.02 315.266C1231.33 321.461 1229.04 326.78 1227.15 331.224H1205.14C1203.25 326.78 1200.96 321.461 1198.27 315.266C1195.58 308.937 1192.75 302.338 1189.78 295.47C1186.96 288.602 1184.06 281.734 1181.1 274.866C1178.14 267.998 1175.44 261.736 1173.02 256.08C1171.67 272.375 1170.66 288.535 1169.99 304.56C1169.32 320.585 1168.78 335.399 1168.37 349H1137.67C1138.21 337.957 1138.81 326.174 1139.49 313.65C1140.29 301.126 1141.1 288.669 1141.91 276.28C1142.85 263.756 1143.86 251.771 1144.94 240.324C1146.15 228.743 1147.43 218.306 1148.78 209.014H1178.88ZM1315.93 296.682C1315.93 287.255 1317.34 279.041 1320.17 272.038C1323.13 264.901 1326.97 258.975 1331.68 254.262C1336.4 249.549 1341.78 245.98 1347.84 243.556C1354.04 241.132 1360.37 239.92 1366.83 239.92C1381.91 239.92 1393.83 244.566 1402.58 253.858C1411.34 263.015 1415.71 276.549 1415.71 294.46C1415.71 296.211 1415.65 298.163 1415.51 300.318C1415.38 302.338 1415.24 304.156 1415.11 305.772H1346.83C1347.51 311.967 1350.4 316.882 1355.52 320.518C1360.64 324.154 1367.5 325.972 1376.12 325.972C1381.64 325.972 1387.03 325.501 1392.28 324.558C1397.67 323.481 1402.05 322.201 1405.41 320.72L1409.45 345.162C1407.84 345.97 1405.68 346.778 1402.99 347.586C1400.29 348.394 1397.26 349.067 1393.9 349.606C1390.67 350.279 1387.16 350.818 1383.39 351.222C1379.62 351.626 1375.85 351.828 1372.08 351.828C1362.52 351.828 1354.17 350.414 1347.03 347.586C1340.03 344.758 1334.17 340.92 1329.46 336.072C1324.88 331.089 1321.45 325.231 1319.16 318.498C1317 311.765 1315.93 304.493 1315.93 296.682ZM1386.63 285.168C1386.49 282.609 1386.02 280.118 1385.21 277.694C1384.54 275.27 1383.39 273.115 1381.78 271.23C1380.3 269.345 1378.34 267.796 1375.92 266.584C1373.63 265.372 1370.74 264.766 1367.23 264.766C1363.87 264.766 1360.97 265.372 1358.55 266.584C1356.12 267.661 1354.1 269.143 1352.49 271.028C1350.87 272.913 1349.59 275.135 1348.65 277.694C1347.84 280.118 1347.24 282.609 1346.83 285.168H1386.63ZM1433.89 296.682C1433.89 287.255 1435.3 279.041 1438.13 272.038C1441.1 264.901 1444.93 258.975 1449.65 254.262C1454.36 249.549 1459.75 245.98 1465.81 243.556C1472 241.132 1478.33 239.92 1484.79 239.92C1499.88 239.92 1511.8 244.566 1520.55 253.858C1529.3 263.015 1533.68 276.549 1533.68 294.46C1533.68 296.211 1533.61 298.163 1533.48 300.318C1533.34 302.338 1533.21 304.156 1533.07 305.772H1464.8C1465.47 311.967 1468.37 316.882 1473.48 320.518C1478.6 324.154 1485.47 325.972 1494.09 325.972C1499.61 325.972 1504.99 325.501 1510.25 324.558C1515.63 323.481 1520.01 322.201 1523.38 320.72L1527.42 345.162C1525.8 345.97 1523.65 346.778 1520.95 347.586C1518.26 348.394 1515.23 349.067 1511.86 349.606C1508.63 350.279 1505.13 350.818 1501.36 351.222C1497.59 351.626 1493.82 351.828 1490.05 351.828C1480.49 351.828 1472.14 350.414 1465 347.586C1458 344.758 1452.14 340.92 1447.42 336.072C1442.85 331.089 1439.41 325.231 1437.12 318.498C1434.97 311.765 1433.89 304.493 1433.89 296.682ZM1504.59 285.168C1504.46 282.609 1503.98 280.118 1503.18 277.694C1502.5 275.27 1501.36 273.115 1499.74 271.23C1498.26 269.345 1496.31 267.796 1493.88 266.584C1491.6 265.372 1488.7 264.766 1485.2 264.766C1481.83 264.766 1478.94 265.372 1476.51 266.584C1474.09 267.661 1472.07 269.143 1470.45 271.028C1468.84 272.913 1467.56 275.135 1466.61 277.694C1465.81 280.118 1465.2 282.609 1464.8 285.168H1504.59ZM1555.9 216.286L1585.99 211.438V242.748H1622.15V267.796H1585.99V305.166C1585.99 311.495 1587.07 316.545 1589.23 320.316C1591.51 324.087 1596.03 325.972 1602.76 325.972C1605.99 325.972 1609.29 325.703 1612.66 325.164C1616.16 324.491 1619.32 323.615 1622.15 322.538L1626.39 345.97C1622.76 347.451 1618.72 348.731 1614.27 349.808C1609.83 350.885 1604.38 351.424 1597.91 351.424C1589.7 351.424 1582.9 350.347 1577.51 348.192C1572.12 345.903 1567.81 342.805 1564.58 338.9C1561.35 334.86 1559.06 330.012 1557.71 324.356C1556.5 318.7 1555.9 312.438 1555.9 305.57V216.286Z" fill="#152D35"/>
</svg>
