<svg width="572" height="572" viewBox="0 0 572 572" fill="none" xmlns="http://www.w3.org/2000/svg">
<rect width="572" height="572" rx="180" fill="#152D35"/>
<path d="M420.776 119.26C347.33 45.8707 227.967 45.5716 154.137 118.42L153.282 119.274C79.5512 192.977 79.5797 312.852 153.325 386.526L267.218 500.305C272.175 505.262 278.697 507.74 285.206 507.74C291.729 507.74 298.252 505.262 303.208 500.305C313.149 490.364 313.149 474.257 303.208 464.316L189.315 350.522C135.594 296.858 135.423 209.611 188.802 155.719L189.329 155.207C243.235 101.386 330.909 101.4 384.772 155.221C429.008 199.428 435.36 275.068 399.513 331.181C391.95 343.031 395.439 358.74 407.289 366.302C419.152 373.893 434.876 370.404 442.438 358.554C491.616 281.548 482.515 180.928 420.79 119.26H420.776ZM375.216 392.351C385.142 402.292 385.157 418.399 375.216 428.326C370.259 433.297 363.737 435.789 357.228 435.789C350.691 435.789 344.182 433.297 339.198 428.34L225.318 314.561C191.294 280.551 191.294 225.221 225.318 191.196C241.796 174.747 263.715 165.675 287.029 165.675H287.058C310.372 165.675 332.276 174.761 348.754 191.239C371.456 213.912 379.859 247.125 370.658 277.916C366.614 291.375 352.457 299.037 338.97 295.007C325.511 290.99 317.849 276.819 321.851 263.346C325.696 250.514 322.207 236.657 312.75 227.214C305.871 220.321 296.756 216.561 287.043 216.547H287.029C277.302 216.547 268.201 220.321 261.322 227.186C247.137 241.343 247.137 264.415 261.322 278.571L375.216 392.351Z" fill="white"/>
</svg>
